<svg xmlns="http://www.w3.org/2000/svg" xmlns:xlink="http://www.w3.org/1999/xlink" version="1.1" width="16" height="16"
  viewBox="0 0 16 16">
  <defs>
    <clipPath id="master_svg0_1_6018">
      <rect x="0" y="0" width="16" height="16" rx="0" />
    </clipPath>
  </defs>
  <g clip-path="url(#master_svg0_1_6018)">
    <g>
      <path
        d="M6.166666626930237,4.1380332924652095L1.6666666269302368,4.1380332924652095Q1.6174209269302369,4.1380332924652095,1.5691215269302368,4.14764329246521Q1.5208216269302368,4.1572432924652105,1.4753246269302367,4.17609329246521Q1.4298276269302368,4.19494329246521,1.3888816269302369,4.2223032924652095Q1.3479356269302367,4.24965329246521,1.3131136269302368,4.28448329246521Q1.278291626930237,4.31930329246521,1.2509316269302369,4.36024329246521Q1.223572626930237,4.40119329246521,1.2047266269302368,4.44669329246521Q1.1858816269302368,4.49219329246521,1.1762736269302367,4.540483292465209Q1.1666666269302368,4.5887832924652106,1.1666666269302368,4.6380332924652095L1.1666666269302368,7.30470329246521Q1.1666666269302368,7.35394329246521,1.1762736269302367,7.40224329246521Q1.1858816269302368,7.45054329246521,1.2047266269302368,7.49604329246521Q1.223572626930237,7.54153329246521,1.2509316269302369,7.58248329246521Q1.278291626930237,7.62343329246521,1.3131136269302368,7.65825329246521Q1.3479356269302367,7.69307329246521,1.3888816269302369,7.72043329246521Q1.4298276269302368,7.74779329246521,1.4753246269302367,7.76664329246521Q1.5208216269302368,7.7854832924652095,1.5691215269302368,7.79509329246521Q1.6174209269302369,7.80470329246521,1.6666666269302368,7.80470329246521L14.333366626930237,7.80470329246521Q14.382566626930236,7.80470329246521,14.430866626930237,7.79509329246521Q14.479166626930237,7.7854832924652095,14.524666626930237,7.76664329246521Q14.570166626930236,7.74779329246521,14.611166626930236,7.72043329246521Q14.652066626930237,7.69307329246521,14.686866626930238,7.65825329246521Q14.721666626930237,7.62343329246521,14.749066626930237,7.58248329246521Q14.776466626930237,7.54153329246521,14.795266626930237,7.49604329246521Q14.814066626930236,7.45054329246521,14.823766626930237,7.40224329246521Q14.833366626930237,7.35394329246521,14.833366626930237,7.30470329246521L14.833366626930237,4.6380332924652095Q14.833366626930237,4.5887832924652106,14.823766626930237,4.540483292465209Q14.814066626930236,4.49219329246521,14.795266626930237,4.44669329246521Q14.776466626930237,4.40119329246521,14.749066626930237,4.36024329246521Q14.721666626930237,4.31930329246521,14.686866626930238,4.28448329246521Q14.652066626930237,4.24965329246521,14.611166626930236,4.2223032924652095Q14.570166626930236,4.19494329246521,14.524666626930237,4.17609329246521Q14.479166626930237,4.1572432924652105,14.430866626930237,4.14764329246521Q14.382566626930236,4.1380332924652095,14.333366626930237,4.1380332924652095L9.833336626930237,4.1380332924652095L9.833336626930237,1.97135329246521Q9.833336626930237,1.92210759246521,9.823726626930236,1.87380819246521Q9.814116626930236,1.82550829246521,9.795266626930237,1.7800112924652098Q9.776426626930236,1.73451429246521,9.749066626930237,1.69356829246521Q9.721706626930237,1.6526222924652099,9.686886626930237,1.61780029246521Q9.652066626930237,1.58297829246521,9.611116626930237,1.55561829246521Q9.570166626930238,1.52825929246521,9.524676626930237,1.50941329246521Q9.479176626930236,1.49056829246521,9.430876626930237,1.4809602924652099Q9.382576626930238,1.47135329246521,9.333336626930237,1.47135329246521L6.666666626930237,1.47135329246521Q6.617416626930237,1.47135329246521,6.569116626930237,1.4809602924652099Q6.520816626930237,1.49056829246521,6.4753266269302365,1.50941329246521Q6.429826626930237,1.52825929246521,6.388876626930236,1.55561829246521Q6.347936626930236,1.58297829246521,6.313116626930237,1.61780029246521Q6.278286626930237,1.6526222924652099,6.250926626930236,1.69356829246521Q6.2235666269302365,1.73451429246521,6.204726626930237,1.7800112924652098Q6.185876626930237,1.82550829246521,6.176276626930237,1.87380819246521Q6.166666626930237,1.92210759246521,6.166666626930237,1.97135329246521L6.166666626930237,4.1380332924652095ZM6.666666626930237,5.1380332924652095Q6.715916626930237,5.1380332924652095,6.764216626930237,5.12842329246521Q6.812506626930237,5.1188132924652106,6.858006626930237,5.09997329246521Q6.903506626930237,5.08112329246521,6.944446626930237,5.053763292465209Q6.985396626930237,5.02641329246521,7.020216626930237,4.99158329246521Q7.055036626930237,4.95676329246521,7.082396626930237,4.915813292465209Q7.109756626930237,4.87487329246521,7.128606626930237,4.82937329246521Q7.147446626930237,4.78387329246521,7.1570566269302365,4.7355832924652095Q7.166666626930237,4.68728329246521,7.166666626930237,4.6380332924652095L7.166666626930237,2.47135329246521L8.833336626930237,2.47135329246521L8.833336626930237,4.6380332924652095Q8.833336626930237,4.68728329246521,8.842936626930236,4.7355832924652095Q8.852546626930238,4.78387329246521,8.871396626930236,4.82937329246521Q8.890236626930236,4.87487329246521,8.917596626930237,4.915813292465209Q8.944956626930237,4.95676329246521,8.979776626930237,4.99158329246521Q9.014596626930237,5.02641329246521,9.055546626930237,5.053763292465209Q9.096496626930236,5.08112329246521,9.141986626930237,5.09997329246521Q9.187486626930237,5.11882329246521,9.235786626930237,5.12842329246521Q9.284086626930236,5.1380332924652095,9.333336626930237,5.1380332924652095L13.833366626930237,5.1380332924652095L13.833366626930237,6.80470329246521L2.166666626930237,6.80470329246521L2.166666626930237,5.1380332924652095L6.666666626930237,5.1380332924652095Z"
        fill-rule="evenodd" fill-opacity="1" />
    </g>
    <g>
      <path
        d="M2.1666667461395264,13.333333492279053L2.1666667461395264,7.333333492279053Q2.1666667461395264,7.284087792279053,2.1762737461395263,7.235788392279053Q2.1858817461395263,7.187488492279053,2.204726746139526,7.141991492279053Q2.2235727461395265,7.096494492279053,2.250931746139526,7.055548492279053Q2.2782917461395265,7.014602492279053,2.3131137461395266,6.979780492279053Q2.3479357461395263,6.944958492279053,2.388881746139526,6.917598492279053Q2.4298277461395266,6.890239492279052,2.4753247461395262,6.8713934922790525Q2.5208217461395264,6.852548492279053,2.5691216461395263,6.842940492279053Q2.617421046139526,6.833333492279053,2.6666667461395264,6.833333492279053L13.333366746139527,6.833333492279053Q13.382566746139526,6.833333492279053,13.430866746139527,6.842940492279053Q13.479166746139526,6.852548492279053,13.524666746139527,6.8713934922790525Q13.570166746139526,6.890239492279052,13.611166746139526,6.917598492279053Q13.652066746139527,6.944958492279053,13.686866746139527,6.979780492279053Q13.721666746139526,7.014602492279053,13.749066746139526,7.055548492279053Q13.776466746139526,7.096494492279053,13.795266746139527,7.141991492279053Q13.814066746139526,7.187488492279053,13.823766746139526,7.235788392279053Q13.833366746139527,7.284087792279053,13.833366746139527,7.333333492279053L13.833366746139527,13.333333492279053Q13.833366746139527,13.382583492279053,13.823766746139526,13.430873492279053Q13.814066746139526,13.479173492279052,13.795266746139527,13.524673492279053Q13.776466746139526,13.570173492279054,13.749066746139526,13.611113492279053Q13.721666746139526,13.652063492279053,13.686866746139527,13.686883492279053Q13.652066746139527,13.721703492279053,13.611166746139526,13.749063492279053Q13.570166746139526,13.776423492279052,13.524666746139527,13.795273492279053Q13.479166746139526,13.814113492279052,13.430866746139527,13.823723492279052Q13.382566746139526,13.833333492279053,13.333366746139527,13.833333492279053L2.6666667461395264,13.833333492279053Q2.617421046139526,13.833333492279053,2.5691216461395263,13.823723492279052Q2.5208217461395264,13.814113492279052,2.4753247461395262,13.795273492279053Q2.4298277461395266,13.776423492279052,2.388881746139526,13.749063492279053Q2.3479357461395263,13.721703492279053,2.3131137461395266,13.686883492279053Q2.2782917461395265,13.652063492279053,2.250931746139526,13.611113492279053Q2.2235727461395265,13.570173492279054,2.204726746139526,13.524673492279053Q2.1858817461395263,13.479173492279052,2.1762737461395263,13.430873492279053Q2.1666667461395264,13.382583492279053,2.1666667461395264,13.333333492279053ZM12.833366746139527,7.833333492279053L3.1666667461395264,7.833333492279053L3.1666667461395264,12.833333492279053L12.833366746139527,12.833333492279053L12.833366746139527,7.833333492279053Z"
        fill-rule="evenodd" fill-opacity="1" />
    </g>
    <g>
      <path
        d="M5.833333492279053,13.299199897766114L5.833333492279053,11.304699897766113Q5.833333492279053,11.255454197766113,5.823726492279053,11.207154797766114Q5.814118492279053,11.158854897766114,5.795273492279053,11.113357897766113Q5.776427492279053,11.067860897766113,5.7490684922790525,11.026914897766114Q5.721708492279053,10.985968897766114,5.6868864922790525,10.951146897766113Q5.652064492279052,10.916324897766113,5.6111184922790525,10.888964897766114Q5.5701724922790525,10.861605897766113,5.524675492279052,10.842759897766113Q5.479178492279052,10.823914897766112,5.430878592279052,10.814306897766114Q5.382579192279053,10.804699897766113,5.333333492279053,10.804699897766113Q5.284087792279053,10.804699897766113,5.235788392279053,10.814306897766114Q5.187488492279053,10.823914897766112,5.141991492279053,10.842759897766113Q5.096494492279053,10.861605897766113,5.055548492279053,10.888964897766114Q5.014602492279053,10.916324897766113,4.979780492279053,10.951146897766113Q4.944958492279053,10.985968897766114,4.917598492279053,11.026914897766114Q4.890239492279052,11.067860897766113,4.8713934922790525,11.113357897766113Q4.852548492279053,11.158854897766114,4.842940492279053,11.207154797766114Q4.833333492279053,11.255454197766113,4.833333492279053,11.304699897766113L4.833333492279053,13.299199897766114Q4.833333492279053,13.348449897766113,4.842940492279053,13.396749897766114Q4.852548492279053,13.445039897766113,4.8713934922790525,13.490539897766112Q4.890239492279052,13.536039897766113,4.917598492279053,13.576979897766114Q4.944958492279053,13.617929897766114,4.979780492279053,13.652749897766114Q5.014602492279053,13.687579897766113,5.055548492279053,13.714929897766114Q5.096494492279053,13.742289897766113,5.141991492279053,13.761139897766114Q5.187488492279053,13.779989897766114,5.235788392279053,13.789589897766113Q5.284087792279053,13.799199897766114,5.333333492279053,13.799199897766114Q5.382579192279053,13.799199897766114,5.430878592279052,13.789589897766113Q5.479178492279052,13.779989897766114,5.524675492279052,13.761139897766114Q5.5701724922790525,13.742289897766113,5.6111184922790525,13.714929897766114Q5.652064492279052,13.687579897766113,5.6868864922790525,13.652749897766114Q5.721708492279053,13.617929897766114,5.7490684922790525,13.576979897766114Q5.776427492279053,13.536039897766113,5.795273492279053,13.490539897766112Q5.814118492279053,13.445039897766113,5.823726492279053,13.396749897766114Q5.833333492279053,13.348449897766113,5.833333492279053,13.299199897766114Z"
        fill-rule="evenodd" fill-opacity="1" />
    </g>
    <g>
      <path
        d="M8.5,13.299233436584473L8.5,11.299233436584473Q8.5,11.249987736584472,8.490393,11.201688336584473Q8.480785000000001,11.153388436584473,8.46194,11.107891436584472Q8.443094,11.062394436584473,8.415735,11.021448436584473Q8.388375,10.980502436584473,8.353553,10.945680436584473Q8.318731,10.910858436584473,8.277785,10.883498436584473Q8.236839,10.856139436584472,8.191342,10.837293436584472Q8.145845,10.818448436584472,8.0975451,10.808840436584473Q8.0492457,10.799233436584473,8,10.799233436584473Q7.9507543,10.799233436584473,7.9024549,10.808840436584473Q7.854155,10.818448436584472,7.808658,10.837293436584472Q7.763161,10.856139436584472,7.722215,10.883498436584473Q7.681269,10.910858436584473,7.646447,10.945680436584473Q7.611625,10.980502436584473,7.584265,11.021448436584473Q7.556906,11.062394436584473,7.53806,11.107891436584472Q7.519215,11.153388436584473,7.509607,11.201688336584473Q7.5,11.249987736584472,7.5,11.299233436584473L7.5,13.299233436584473Q7.5,13.348483436584473,7.509607,13.396773436584473Q7.519215,13.445073436584472,7.53806,13.490573436584473Q7.556906,13.536073436584473,7.584265,13.577013436584473Q7.611625,13.617963436584473,7.646447,13.652783436584473Q7.681269,13.687613436584472,7.722215,13.714963436584473Q7.763161,13.742323436584472,7.808658,13.761173436584473Q7.854155,13.780013436584472,7.9024549,13.789623436584472Q7.9507543,13.799233436584473,8,13.799233436584473Q8.0492457,13.799233436584473,8.0975451,13.789623436584472Q8.145845,13.780013436584472,8.191342,13.761173436584473Q8.236839,13.742323436584472,8.277785,13.714963436584473Q8.318731,13.687613436584472,8.353553,13.652783436584473Q8.388375,13.617963436584473,8.415735,13.577023436584472Q8.443094,13.536073436584473,8.46194,13.490573436584473Q8.480785000000001,13.445073436584472,8.490393,13.396773436584473Q8.5,13.348483436584473,8.5,13.299233436584473Z"
        fill-rule="evenodd" fill-opacity="1" />
    </g>
    <g>
      <path
        d="M11.166666984558105,13.299199897766114L11.166666984558105,11.304699897766113Q11.166666984558105,11.255454197766113,11.157059984558105,11.207154797766114Q11.147451984558106,11.158854897766114,11.128606984558106,11.113357897766113Q11.109760984558106,11.067860897766113,11.082401984558105,11.026914897766114Q11.055041984558105,10.985968897766114,11.020219984558105,10.951146897766113Q10.985397984558105,10.916324897766113,10.944451984558105,10.888964897766114Q10.903505984558105,10.861605897766113,10.858008984558106,10.842759897766113Q10.812511984558105,10.823914897766112,10.764212084558105,10.814306897766114Q10.715912684558106,10.804699897766113,10.666666984558105,10.804699897766113Q10.617421284558105,10.804699897766113,10.569121884558106,10.814306897766114Q10.520821984558106,10.823914897766112,10.475324984558105,10.842759897766113Q10.429827984558106,10.861605897766113,10.388881984558106,10.888964897766114Q10.347935984558106,10.916324897766113,10.313113984558106,10.951146897766113Q10.278291984558106,10.985968897766114,10.250931984558106,11.026914897766114Q10.223572984558105,11.067860897766113,10.204726984558105,11.113357897766113Q10.185881984558105,11.158854897766114,10.176273984558106,11.207154797766114Q10.166666984558105,11.255454197766113,10.166666984558105,11.304699897766113L10.166666984558105,13.299199897766114Q10.166666984558105,13.348449897766113,10.176273984558106,13.396749897766114Q10.185881984558105,13.445039897766113,10.204726984558105,13.490539897766112Q10.223572984558105,13.536039897766113,10.250931984558106,13.576979897766114Q10.278291984558106,13.617929897766114,10.313113984558106,13.652749897766114Q10.347935984558106,13.687579897766113,10.388881984558106,13.714929897766114Q10.429827984558106,13.742289897766113,10.475324984558105,13.761139897766114Q10.520821984558106,13.779989897766114,10.569121884558106,13.789589897766113Q10.617421284558105,13.799199897766114,10.666666984558105,13.799199897766114Q10.715912684558106,13.799199897766114,10.764212084558105,13.789589897766113Q10.812511984558105,13.779989897766114,10.858008984558106,13.761139897766114Q10.903505984558105,13.742289897766113,10.944451984558105,13.714929897766114Q10.985397984558105,13.687579897766113,11.020219984558105,13.652749897766114Q11.055041984558105,13.617929897766114,11.082401984558105,13.576979897766114Q11.109760984558106,13.536039897766113,11.128606984558106,13.490539897766112Q11.147451984558106,13.445039897766113,11.157059984558105,13.396749897766114Q11.166666984558105,13.348449897766113,11.166666984558105,13.299199897766114Z"
        fill-rule="evenodd" fill-opacity="1" />
    </g>
    <g>
      <path
        d="M4,13.833333015441895L12,13.833333015441895Q12.04924,13.833333015441895,12.09754,13.823726015441894Q12.14584,13.814118015441895,12.19134,13.795273015441895Q12.23684,13.776427015441895,12.27778,13.749068015441894Q12.31873,13.721708015441894,12.35355,13.686886015441894Q12.38837,13.652064015441894,12.41573,13.611118015441894Q12.44309,13.570172015441894,12.46194,13.524675015441895Q12.48078,13.479178015441894,12.49039,13.430878115441894Q12.5,13.382578715441895,12.5,13.333333015441895Q12.5,13.284087315441894,12.49039,13.235787915441895Q12.48078,13.187488015441895,12.46194,13.141991015441894Q12.44309,13.096494015441895,12.41573,13.055548015441895Q12.38837,13.014602015441895,12.35355,12.979780015441895Q12.31873,12.944958015441895,12.27778,12.917598015441895Q12.23684,12.890239015441894,12.19134,12.871393015441894Q12.14584,12.852548015441894,12.09754,12.842940015441895Q12.04924,12.833333015441895,12,12.833333015441895L4,12.833333015441895Q3.9507543,12.833333015441895,3.9024549,12.842940015441895Q3.854155,12.852548015441894,3.808658,12.871393015441894Q3.763161,12.890239015441894,3.722215,12.917598015441895Q3.681269,12.944958015441895,3.646447,12.979780015441895Q3.611625,13.014602015441895,3.584265,13.055548015441895Q3.556906,13.096494015441895,3.5380599999999998,13.141991015441894Q3.519215,13.187488015441895,3.509607,13.235787915441895Q3.5,13.284087315441894,3.5,13.333333015441895Q3.5,13.382578715441895,3.509607,13.430878115441894Q3.519215,13.479178015441894,3.5380599999999998,13.524675015441895Q3.556906,13.570172015441894,3.584265,13.611118015441894Q3.611625,13.652064015441894,3.646447,13.686886015441894Q3.681269,13.721708015441894,3.722215,13.749068015441894Q3.763161,13.776427015441895,3.808658,13.795273015441895Q3.854155,13.814118015441895,3.9024549,13.823726015441894Q3.9507543,13.833333015441895,4,13.833333015441895Z"
        fill-rule="evenodd" fill-opacity="1" />
    </g>
  </g>
</svg>