<?xml version="1.0" standalone="no"?><!DOCTYPE svg PUBLIC "-//W3C//DTD SVG 1.1//EN" "http://www.w3.org/Graphics/SVG/1.1/DTD/svg11.dtd"><svg t="1708678551139" class="icon" viewBox="0 0 1024 1024" version="1.1" xmlns="http://www.w3.org/2000/svg" p-id="2544" xmlns:xlink="http://www.w3.org/1999/xlink" width="200" height="200"><path d="M512 85.333333l-234.666667 384h469.333334L512 85.333333z m0 163.84L594.346667 384h-165.12L512 249.173333zM746.666667 554.666667c-106.24 0-192 85.76-192 192s85.76 192 192 192 192-85.76 192-192-85.76-192-192-192z m0 298.666666a106.666667 106.666667 0 0 1 0-213.333333 106.666667 106.666667 0 0 1 0 213.333333zM128 917.333333h341.333333v-341.333333H128v341.333333z m85.333333-256h170.666667v170.666667H213.333333v-170.666667z" fill="#323232" p-id="2545"></path></svg>