<?xml version="1.0" standalone="no"?><!DOCTYPE svg PUBLIC "-//W3C//DTD SVG 1.1//EN" "http://www.w3.org/Graphics/SVG/1.1/DTD/svg11.dtd"><svg t="1708678520085" class="icon" viewBox="0 0 1024 1024" version="1.1" xmlns="http://www.w3.org/2000/svg" p-id="2181" xmlns:xlink="http://www.w3.org/1999/xlink" width="200" height="200"><path d="M896 128H128C85.333333 128 42.666667 170.666667 42.666667 213.333333v597.333334c0 46.933333 38.4 85.333333 85.333333 85.333333h768c42.666667 0 85.333333-42.666667 85.333333-85.333333V213.333333c0-42.666667-42.666667-85.333333-85.333333-85.333333z m0 679.253333c-0.853333 1.28-2.56 2.56-3.413333 3.413334H128V216.746667L131.413333 213.333333h760.746667c1.28 0.853333 2.56 2.56 3.413333 3.413334v590.506666H896z m-426.666667-145.493333L362.666667 533.333333 213.333333 725.333333h597.333334l-192-256-149.333334 192.426667z" fill="#323232" p-id="2182"></path></svg>