<?xml version="1.0" standalone="no"?><!DOCTYPE svg PUBLIC "-//W3C//DTD SVG 1.1//EN" "http://www.w3.org/Graphics/SVG/1.1/DTD/svg11.dtd"><svg t="1708678507865" class="icon" viewBox="0 0 1024 1024" version="1.1" xmlns="http://www.w3.org/2000/svg" p-id="1367" xmlns:xlink="http://www.w3.org/1999/xlink" width="200" height="200"><path d="M298.666667 896a42.666667 42.666667 0 1 0 85.333333 0V341.333333h85.333333a42.666667 42.666667 0 1 0 0-85.333333H384V128a42.666667 42.666667 0 0 0-85.333333 0v128H213.333333a42.666667 42.666667 0 0 0 0 85.333333h85.333334v554.666667z m384-810.666667a42.666667 42.666667 0 0 0-42.666667 42.666667v554.666667h-85.333333a42.666667 42.666667 0 1 0 0 85.333333h85.333333v128a42.666667 42.666667 0 1 0 85.333333 0v-128h85.333334a42.666667 42.666667 0 1 0 0-85.333333h-85.333334V128a42.666667 42.666667 0 0 0-42.666666-42.666667z" fill="#000000" p-id="1368"></path></svg>