<?xml version="1.0" standalone="no"?><!DOCTYPE svg PUBLIC "-//W3C//DTD SVG 1.1//EN" "http://www.w3.org/Graphics/SVG/1.1/DTD/svg11.dtd"><svg t="1708678422373" class="icon" viewBox="0 0 1024 1024" version="1.1" xmlns="http://www.w3.org/2000/svg" p-id="1457" xmlns:xlink="http://www.w3.org/1999/xlink" width="200" height="200"><path d="M527.744 410.453333a32.213333 32.213333 0 0 1-32-32 32.213333 32.213333 0 0 1 32-32h224a32 32 0 0 1 0 64z" fill="#292D32" p-id="1458"></path><path d="M281.173333 433.450667l-32-32a32 32 0 0 1 45.226667-45.226667l9.386667 9.386667L377.173333 292.266667A32 32 0 0 1 422.4 337.493333l-96 96a31.957333 31.957333 0 0 1-22.613333 9.386667 31.658667 31.658667 0 0 1-22.613334-9.429333zM527.744 709.12a32.213333 32.213333 0 0 1-32-32 32.213333 32.213333 0 0 1 32-32h224a32 32 0 0 1 0 64zM281.173333 732.117333l-32-32a32 32 0 0 1 45.226667-45.226666l9.386667 9.386666 73.386666-73.344a32 32 0 0 1 45.226667 45.226667l-96 96a31.957333 31.957333 0 0 1-22.613333 9.386667 31.658667 31.658667 0 0 1-22.613334-9.429334z" fill="#292D32" p-id="1459"></path><path d="M640 970.666667H384c-231.765333 0-330.666667-98.901333-330.666667-330.666667V384c0-231.765333 98.901333-330.666667 330.666667-330.666667h256c231.765333 0 330.666667 98.901333 330.666667 330.666667v256c0 231.765333-98.901333 330.666667-330.666667 330.666667z m-256-853.333334C187.136 117.333333 117.333333 187.136 117.333333 384v256c0 196.864 69.802667 266.666667 266.666667 266.666667h256c196.864 0 266.666667-69.802667 266.666667-266.666667V384c0-196.864-69.76-266.666667-266.666667-266.666667z" fill="#292D32" p-id="1460"></path></svg>